# xmcd CD database file
#
# Track frame offsets:
#	150
#	22366
#	43678
#	76260
#	102762
#
# Disc length: 1616 seconds
#
# Revision: 0
# Processed by: cddbd v1.5.1PL0 Copyright (c) Steve Scherf et al.
# Submitted via: CDex 1.51
#
DISCID=37064e05
DTITLE=NISHIMURA MASATOSHI - 夢唄　初夏
DYEAR=2003
DGENRE=Pop
TTITLE0=ひまわり
TTITLE1=蒼く染めて
TTITLE2=涙星
TTITLE3=OVER THE DREAM Live version
TTITLE4=ひまわり　独唱
EXTD=YEAR: 2003
EXTT0=
EXTT1=
EXTT2=
EXTT3=
EXTT4=
PLAYORDER=
